<svg xmlns="http://www.w3.org/2000/svg" viewBox="0 0 192 192">
  <defs>
    <linearGradient id="bg" x1="0" x2="1" y1="0" y2="1">
      <stop offset="0%" stop-color="#fdf6e7"/>
      <stop offset="100%" stop-color="#f6e9ce"/>
    </linearGradient>
  </defs>
  <rect width="192" height="192" rx="42" fill="url(#bg)"/>
  <circle cx="96" cy="96" r="56" fill="#d6a75e" opacity="0.18"/>
  <path d="M96 51c10 13 15 24 15 33-4-3-8-4-15-4-7 0-11 1-15 4 0-9 5-20 15-33zm-37 53c17 0 28 6 37 16-9 8-20 12-37 12-14 0-22-5-22-12 0-8 8-16 22-16zm74 0c14 0 22 8 22 16 0 7-8 12-22 12-17 0-28-4-37-12 9-10 20-16 37-16z" fill="#b9934e"/>
  <text x="96" y="165" text-anchor="middle" font-size="18" fill="#4e3a24" font-family="Georgia, serif">C</text>
</svg>
