<svg xmlns="http://www.w3.org/2000/svg" viewBox="0 0 512 512">
  <defs>
    <linearGradient id="bg" x1="0" x2="1" y1="0" y2="1">
      <stop offset="0%" stop-color="#fdf6e7"/>
      <stop offset="100%" stop-color="#f6e9ce"/>
    </linearGradient>
  </defs>
  <rect width="512" height="512" rx="100" fill="url(#bg)"/>
  <circle cx="256" cy="256" r="150" fill="#d6a75e" opacity="0.18"/>
  <path d="M256 135c28 35 43 66 43 93-11-8-23-12-43-12-20 0-32 4-43 12 0-27 15-58 43-93zm-98 149c46 0 75 16 98 43-23 23-52 33-98 33-38 0-58-13-58-33 0-21 20-43 58-43zm196 0c38 0 58 22 58 43 0 20-20 33-58 33-46 0-75-10-98-33 23-27 52-43 98-43z" fill="#b9934e"/>
  <text x="256" y="435" text-anchor="middle" font-size="54" fill="#4e3a24" font-family="Georgia, serif">Cashbook</text>
</svg>
